<?xml version="1.0" encoding="iso-8859-1"?>
<!-- Generator: Adobe Illustrator 19.0.0, SVG Export Plug-In . SVG Version: 6.00 Build 0)  -->
<svg version="1.1" id="Layer_1" xmlns="http://www.w3.org/2000/svg" xmlns:xlink="http://www.w3.org/1999/xlink" x="0px" y="0px"
	 viewBox="0 0 512 512" style="enable-background:new 0 0 512 512;" xml:space="preserve">
<circle style="fill:#FFF59B;" cx="256" cy="256" r="256"/>
<path style="fill:#FFD782;" d="M7.555,317.793C35.206,429.318,135.927,512,256,512s220.794-82.682,248.445-194.207H7.555z"/>
<g>
	<path style="fill:#FFB864;" d="M335.448,423.724H176.552c-4.875,0-8.828-3.953-8.828-8.828l0,0c0-4.875,3.953-8.828,8.828-8.828
		h158.897c4.875,0,8.828,3.953,8.828,8.828l0,0C344.276,419.772,340.323,423.724,335.448,423.724z"/>
	<path style="fill:#FFB864;" d="M12.633,335.448h486.734c1.892-5.8,3.596-11.681,5.078-17.655H7.555
		C9.036,323.767,10.741,329.649,12.633,335.448z"/>
</g>
<path style="fill:#FFF59B;" d="M79.609,441.379c6.568,6.254,13.485,12.121,20.687,17.655h311.405
	c7.202-5.534,14.12-11.401,20.687-17.655H79.609z"/>
<circle style="fill:#65A1FF;" cx="256" cy="229.517" r="141.241"/>
<path style="fill:#3769D2;" d="M206.063,279.454c-46.52-46.52-53.644-117.348-21.695-171.503
	c-10.056,5.932-19.604,13.057-28.242,21.695c-55.158,55.158-55.158,144.587,0,199.745s144.587,55.158,199.745,0
	c8.638-8.638,15.763-18.186,21.695-28.242C323.412,333.098,252.584,325.974,206.063,279.454z"/>
<path style="fill:#558CFF;" d="M271.475,369.833c30.827-3.38,60.762-16.808,84.398-40.442c23.635-23.635,37.064-53.57,40.442-84.398
	l-155.79-155.79c-30.827,3.38-60.762,16.808-84.398,40.442c-23.635,23.635-37.064,53.57-40.442,84.398L271.475,369.833z"/>
<path style="fill:#467AE8;" d="M366.591,317.204c0.694-0.874,1.364-1.761,2.035-2.648c3.239-4.343,6.232-8.813,8.942-13.407
	c-54.155,31.949-124.984,24.825-171.503-21.695c-46.52-46.52-53.644-117.348-21.695-171.503c-4.589,2.708-9.056,5.699-13.396,8.935
	c-0.895,0.676-1.789,1.351-2.67,2.051c-1.496,1.173-2.979,2.374-4.437,3.617c-2.634,2.271-5.239,4.594-7.738,7.093
	c-3.215,3.215-6.202,6.57-9.043,10.004c-1.003,1.214-1.902,2.483-2.858,3.722c-1.736,2.247-3.441,4.509-5.022,6.831
	c-1.076,1.585-2.074,3.203-3.079,4.82c-1.263,2.03-2.486,4.076-3.637,6.154c-1.023,1.852-2.005,3.72-2.938,5.606
	c-0.925,1.865-1.783,3.752-2.621,5.646c-0.927,2.104-1.852,4.211-2.67,6.349c-0.619,1.609-1.145,3.242-1.704,4.867
	c-0.835,2.443-1.697,4.882-2.394,7.358c-0.178,0.63-0.296,1.27-0.465,1.901c-1.852,6.948-3.228,13.999-4.008,21.109
	c-0.001,0.01-0.003,0.019-0.004,0.029l155.79,155.79c0.01-0.001,0.019-0.003,0.029-0.004c7.111-0.78,14.161-2.156,21.109-4.009
	c0.631-0.169,1.271-0.287,1.901-0.465c2.477-0.697,4.915-1.559,7.358-2.395c1.626-0.557,3.26-1.085,4.867-1.704
	c2.138-0.82,4.244-1.745,6.349-2.67c1.896-0.838,3.783-1.695,5.646-2.621c1.886-0.934,3.754-1.916,5.605-2.938
	c2.078-1.151,4.124-2.374,6.154-3.637c1.617-1.004,3.236-2.003,4.82-3.079c2.324-1.581,4.585-3.287,6.831-5.022
	c1.239-0.957,2.508-1.855,3.722-2.858c3.435-2.84,6.79-5.827,10.004-9.043c2.499-2.499,4.821-5.103,7.092-7.737
	C364.211,320.191,365.416,318.705,366.591,317.204z"/>
<path style="fill:#FFEB50;" d="M136.782,153.993l194.742,194.742c8.62-5.458,16.83-11.826,24.349-19.345s13.887-15.73,19.346-24.35
	L180.477,110.3c-8.62,5.459-16.831,11.826-24.35,19.346C148.608,137.163,142.24,145.373,136.782,153.993z"/>
<path style="fill:#FFFFFF;" d="M261.26,111.901c-40.959,40.959-81.918,81.918-122.877,122.877
	c19.998,50.59,61.767,92.36,112.356,112.356c40.959-40.959,81.918-81.918,122.877-122.877
	C353.62,173.667,311.85,131.897,261.26,111.901z"/>
<path style="fill:#D2EBFA;" d="M167.282,205.878c-9.633,9.633-19.266,19.266-28.898,28.899
	c19.998,50.59,61.767,92.36,112.356,112.356c9.633-9.633,19.266-19.266,28.899-28.899c-26.946-5.044-52.711-17.917-73.576-38.782
	C185.199,258.589,172.326,232.825,167.282,205.878z"/>
<path style="fill:#FFEB50;" d="M206.595,322.616l142.503-142.503c-12.244-16.651-27.043-31.45-43.694-43.694L162.902,278.922
	C175.146,295.572,189.945,310.371,206.595,322.616z"/>
<g>
	<path style="fill:#FFD750;" d="M206.063,279.454c-7.514-7.514-13.953-15.682-19.401-24.294l-23.761,23.761
		c2.785,3.788,5.741,7.451,8.783,11.038c0.618,0.728,1.24,1.45,1.868,2.169c6.151,7.053,12.782,13.685,19.836,19.836
		c0.719,0.628,1.442,1.25,2.169,1.868c3.588,3.042,7.25,5.997,11.038,8.783l23.761-23.761
		C221.746,293.407,213.578,286.968,206.063,279.454z"/>
	<path style="fill:#FFD750;" d="M366.794,316.954c2.702-3.464,5.195-7.037,7.548-10.675c0.277-0.43,0.544-0.866,0.817-1.3
		l-1.656-1.656c-21.772,11.897-45.96,17.679-70.102,17.287l28.125,28.125c8.62-5.458,16.83-11.826,24.349-19.345
		c3.441-3.441,6.578-7.061,9.56-10.765C365.882,318.066,366.355,317.519,366.794,316.954z"/>
	<path style="fill:#FFD750;" d="M164.907,182.118c-0.393-24.142,5.389-48.33,17.287-70.102l-1.656-1.656
		c-0.433,0.273-0.87,0.54-1.3,0.817c-3.639,2.354-7.214,4.847-10.679,7.551c-0.561,0.437-1.105,0.906-1.661,1.353
		c-3.705,2.983-7.328,6.122-10.77,9.565c-7.519,7.519-13.887,15.729-19.345,24.349L164.907,182.118z"/>
</g>
<g>
</g>
<g>
</g>
<g>
</g>
<g>
</g>
<g>
</g>
<g>
</g>
<g>
</g>
<g>
</g>
<g>
</g>
<g>
</g>
<g>
</g>
<g>
</g>
<g>
</g>
<g>
</g>
<g>
</g>
</svg>
